<svg width="62" height="46" viewBox="0 0 62 46" fill="none" xmlns="http://www.w3.org/2000/svg">
<path d="M33.3069 32.6721L13.1841 12.5493C11.7955 11.1608 9.5443 11.1608 8.15576 12.5493L3.10769 17.5974C1.71916 18.9859 1.71916 21.2372 3.10769 22.6257L23.2305 42.7485C24.619 44.137 26.8703 44.137 28.2588 42.7485L33.3069 37.7004C34.6954 36.3119 34.6954 34.0607 33.3069 32.6721Z" fill="#36B843"/>
<path d="M48.4477 2.68203L18.3281 32.8016C16.9396 34.1902 16.9396 36.4414 18.3281 37.83L23.3762 42.878C24.7647 44.2666 27.016 44.2666 28.4045 42.878L58.5241 12.7584C59.9126 11.3699 59.9126 9.11864 58.5241 7.73011L53.476 2.68203C52.0875 1.2935 49.8363 1.2935 48.4477 2.68203Z" fill="#36B843"/>
</svg>
