<svg width="19" height="19" viewBox="0 0 19 19" fill="none" xmlns="http://www.w3.org/2000/svg">
<path d="M0.0866699 4.13369C0.0866699 3.14369 0.98667 2.33369 2.08667 2.33369H16.0867C17.1917 2.33369 18.0867 3.13919 18.0867 4.13369V16.7337C18.0867 17.7282 17.1917 18.5337 16.0867 18.5337H2.08667C0.98167 18.5337 0.0866699 17.7282 0.0866699 16.7337V4.13369ZM2.08667 5.93369V16.7337H16.0867V5.93369H2.08667ZM4.08667 0.533691H6.08667V2.33369H4.08667V0.533691ZM12.0867 0.533691H14.0867V2.33369H12.0867V0.533691ZM4.08667 8.63369H6.08667V10.4337H4.08667V8.63369ZM4.08667 12.2337H6.08667V14.0337H4.08667V12.2337ZM8.08667 8.63369H10.0867V10.4337H8.08667V8.63369ZM8.08667 12.2337H10.0867V14.0337H8.08667V12.2337ZM12.0867 8.63369H14.0867V10.4337H12.0867V8.63369ZM12.0867 12.2337H14.0867V14.0337H12.0867V12.2337Z" fill="#F45656"/>
</svg>
