<svg width="19" height="19" viewBox="0 0 19 19" fill="none" xmlns="http://www.w3.org/2000/svg">
<path d="M16.0331 12.8457V10.9343H14.0641V12.8457H16.0331ZM16.0331 16.623V14.7562H14.0641V16.623H16.0331ZM10.0331 5.24562V3.37877H8.06407V5.24562H10.0331ZM10.0331 9.06842V7.15702H8.06407V9.06842H10.0331ZM10.0331 12.8457V10.9343H8.06407V12.8457H10.0331ZM10.0331 16.623V14.7562H8.06407V16.623H10.0331ZM4.03307 9.06842V7.15702H2.06407V9.06842H4.03307ZM4.03307 12.8457V10.9343H2.06407V12.8457H4.03307ZM4.03307 16.623V14.7562H2.06407V16.623H4.03307ZM12.0491 9.06842H18.0491V18.5344H0.0490723V5.24562H6.04907V3.37877L9.04907 0.534424L12.0491 3.37877V9.06842Z" fill="#F45656"/>
</svg>
