<svg width="21" height="21" viewBox="0 0 21 21" fill="none" xmlns="http://www.w3.org/2000/svg">
<path d="M14.4346 12.8297H17.8096C17.9969 11.9544 18.0906 11.2824 18.0906 10.8137C18.0906 10.345 17.9969 9.67305 17.8096 8.79771H14.4346C14.5286 9.45371 14.5756 10.1257 14.5756 10.8137C14.5756 11.5017 14.5286 12.1737 14.4346 12.8297ZM12.6536 18.3607C13.4349 18.1107 14.2476 17.634 15.0916 16.9307C15.9356 16.2274 16.5762 15.5164 17.0136 14.7977H14.0606C13.7479 16.0477 13.2792 17.2354 12.6546 18.3607H12.6536ZM12.4196 12.8297C12.5136 12.1737 12.5606 11.5017 12.5606 10.8137C12.5606 10.1257 12.5136 9.45371 12.4196 8.79771H7.73158C7.63758 9.45371 7.59058 10.1257 7.59058 10.8137C7.59058 11.5017 7.63758 12.1737 7.73158 12.8297H12.4196ZM10.0756 18.7827C10.9509 17.5014 11.5916 16.1734 11.9976 14.7987H8.15358C8.55958 16.174 9.20024 17.502 10.0756 18.7827ZM6.09158 6.82971C6.46691 5.48571 6.93558 4.29805 7.49758 3.26671C6.71624 3.51671 5.89591 3.99338 5.03658 4.69671C4.17724 5.40004 3.54458 6.11105 3.13858 6.82971H6.09158ZM3.13858 14.7977C3.54458 15.5164 4.17724 16.2274 5.03658 16.9307C5.89591 17.634 6.71624 18.1107 7.49758 18.3607C6.87224 17.2354 6.40358 16.0477 6.09158 14.7977H3.13858ZM2.34158 12.8297H5.71658C5.62258 12.1737 5.57558 11.5017 5.57558 10.8137C5.57558 10.1257 5.62258 9.45371 5.71658 8.79771H2.34158C2.15424 9.67305 2.06058 10.345 2.06058 10.8137C2.06058 11.2824 2.15424 11.9544 2.34158 12.8297ZM10.0756 2.84471C9.20024 4.12605 8.55958 5.45405 8.15358 6.82871H11.9976C11.5916 5.45338 10.9509 4.12538 10.0756 2.84471ZM17.0136 6.82971C16.5762 6.11105 15.9356 5.40004 15.0916 4.69671C14.2476 3.99338 13.4349 3.51671 12.6536 3.26671C13.2162 4.29805 13.6849 5.48571 14.0596 6.82971H17.0136ZM10.0756 0.829712C12.8256 0.829712 15.1772 1.80638 17.1306 3.75971C19.0839 5.71305 20.0606 8.06471 20.0606 10.8147C20.0606 13.5647 19.0839 15.9164 17.1306 17.8697C15.1772 19.823 12.8256 20.7997 10.0756 20.7997C7.32558 20.7997 4.97391 19.823 3.02058 17.8697C1.06724 15.9164 0.0905762 13.5647 0.0905762 10.8147C0.0905762 8.06471 1.06724 5.71305 3.02058 3.75971C4.97391 1.80638 7.32558 0.829712 10.0756 0.829712Z" fill="#36B843"/>
</svg>
