<svg width="19" height="19" viewBox="0 0 19 19" fill="none" xmlns="http://www.w3.org/2000/svg">
<path d="M11.6948 9.65316C11.6948 10.3315 11.4207 10.9435 10.9756 11.3886C10.5305 11.8337 9.91851 12.1078 9.24023 12.1078C8.56196 12.1078 7.94996 11.8337 7.50487 11.3886C7.05978 10.9435 6.78569 10.3315 6.78569 9.65316C6.78569 8.97485 7.05978 8.36282 7.50487 7.91771C7.94996 7.4726 8.56196 7.1985 9.24023 7.1985C9.91851 7.1985 10.5305 7.4726 10.9756 7.91771C11.4207 8.36282 11.6948 8.97485 11.6948 9.65316ZM12.3002 12.368C12.4066 12.5169 12.5244 12.6568 12.6529 12.7853C13.2444 13.3769 14.0642 13.7443 14.9675 13.7443C15.8708 13.7443 16.6906 13.3769 17.2813 12.7853C17.8721 12.1937 18.2402 11.3747 18.2402 10.4714V9.65316C18.2402 7.16822 17.2314 4.91649 15.6041 3.28905C13.9767 1.66161 11.7251 0.652747 9.23942 0.653565C6.75378 0.654383 4.50378 1.66161 2.8756 3.28987C1.24742 4.91812 0.240234 7.16904 0.240234 9.65397C0.240234 12.1389 1.24905 14.3906 2.87642 16.0181C4.50378 17.6455 6.75542 18.6544 9.24023 18.6536C11.3061 18.6536 13.2125 17.9564 14.7139 16.797C15.0714 16.5213 15.1377 16.0074 14.8611 15.6491C14.5846 15.2907 14.0716 15.2252 13.7132 15.5018C12.4966 16.4411 10.9502 17.0106 9.26642 17.0171C7.18823 17.0098 5.35878 16.1875 4.03169 14.8603C2.70051 13.5274 1.8766 11.6881 1.8766 9.65397C1.8766 7.61988 2.69969 5.78053 4.03333 4.44683C5.36696 3.11313 7.20623 2.29 9.24023 2.29C11.2742 2.29 13.1135 3.11313 14.4471 4.44683C15.7808 5.78053 16.6039 7.61988 16.6039 9.65316V10.4714C16.6039 10.9239 16.4214 11.3313 16.1244 11.6283C15.8274 11.9253 15.42 12.1078 14.9675 12.1078C14.5151 12.1078 14.1076 11.9253 13.8106 11.6283C13.5136 11.3313 13.3311 10.9239 13.3311 10.4714V6.38028C13.3311 5.92862 12.9646 5.56206 12.513 5.56206C12.0613 5.56206 11.6948 5.92862 11.6948 6.38028C11.0116 5.86726 10.1607 5.56206 9.24023 5.56206C8.11114 5.56206 7.08678 6.02108 6.34714 6.75993C5.60751 7.49879 5.14933 8.52401 5.14933 9.65316C5.14933 10.7823 5.60833 11.8067 6.34714 12.5464C7.08596 13.286 8.11114 13.7443 9.24023 13.7443C10.3693 13.7443 11.3937 13.2852 12.1333 12.5464C12.1906 12.4891 12.2471 12.4294 12.3011 12.3688L12.3002 12.368Z" fill="#F45656"/>
</svg>
