<svg width="650" height="512" viewBox="0 0 650 512" fill="none" xmlns="http://www.w3.org/2000/svg">
<path d="M337.969 411.09C430.584 411.09 505.664 336.01 505.664 243.395C505.664 150.78 430.584 75.7 337.969 75.7C245.354 75.7 170.274 150.78 170.274 243.395C170.274 336.01 245.354 411.09 337.969 411.09Z" fill="#D2F8DB"/>
<path d="M574.583 223.757V205.647C574.583 202.194 573.212 198.882 570.77 196.44C568.328 193.998 565.016 192.627 561.562 192.627H505.603C503.893 192.627 502.2 192.29 500.62 191.635C499.041 190.981 497.605 190.022 496.396 188.813C495.187 187.604 494.228 186.168 493.574 184.589C492.919 183.009 492.582 181.316 492.582 179.606V161.496C492.582 158.043 493.954 154.731 496.396 152.289C498.838 149.847 502.15 148.475 505.603 148.475H527.054C530.508 148.475 533.82 147.103 536.262 144.661C538.703 142.22 540.075 138.908 540.075 135.454V117.345C540.075 113.891 538.703 110.579 536.262 108.138C533.82 105.696 530.508 104.324 527.054 104.324H143.135C139.682 104.324 136.37 105.696 133.928 108.138C131.486 110.579 130.114 113.891 130.114 117.345V135.454C130.114 138.908 131.486 142.22 133.928 144.661C136.37 147.103 139.682 148.475 143.135 148.475C146.589 148.475 149.9 149.847 152.342 152.289C154.784 154.731 156.156 158.043 156.156 161.496V179.606C156.156 183.059 154.784 186.371 152.342 188.813C149.9 191.255 146.589 192.627 143.135 192.627H82.7823C79.329 192.627 76.0171 193.998 73.5752 196.44C71.1333 198.882 69.7615 202.194 69.7615 205.647V223.757C69.7615 227.211 71.1333 230.522 73.5752 232.964C76.0171 235.406 79.329 236.778 82.7823 236.778H142.54C144.25 236.778 145.943 237.115 147.523 237.769C149.103 238.424 150.538 239.383 151.747 240.592C152.956 241.801 153.915 243.236 154.57 244.816C155.224 246.396 155.561 248.089 155.561 249.799V267.909C155.88 284.48 119.731 280.93 112.54 280.93H112.492C109.039 280.93 105.727 282.301 103.285 284.743C100.843 287.185 99.4715 290.497 99.4715 293.95V312.06C99.4715 315.513 100.843 318.825 103.285 321.267C105.727 323.709 109.039 325.081 112.492 325.081H145.351C148.804 325.081 152.116 326.453 154.558 328.895C157 331.337 158.372 334.648 158.372 338.102V356.212C158.372 359.665 157 362.977 154.558 365.419C152.116 367.861 148.804 369.232 145.351 369.232H108.437C104.984 369.232 101.672 370.604 99.2302 373.046C96.7884 375.488 95.4165 378.8 95.4165 382.253V400.363C95.4165 403.816 96.7884 407.128 99.2302 409.57C101.672 412.012 104.984 413.384 108.437 413.384H524.045C527.498 413.384 530.81 412.012 533.252 409.57C535.694 407.128 537.066 403.816 537.066 400.363V382.253C537.066 378.8 535.694 375.488 533.252 373.046C530.81 370.604 527.498 369.232 524.045 369.232H502.755C499.302 369.232 495.99 367.861 493.548 365.419C491.106 362.977 489.734 359.665 489.734 356.212V338.102C489.734 334.648 491.106 331.336 493.548 328.895C495.99 326.453 499.302 325.081 502.755 325.081H539.375C542.829 325.081 546.141 323.709 548.582 321.267C551.024 318.825 552.396 315.513 552.396 312.06V293.95C552.396 290.497 551.024 287.185 548.582 284.743C546.141 282.301 542.829 280.93 539.375 280.93H521.3C517.847 280.93 514.535 279.558 512.093 277.116C509.651 274.674 508.279 271.362 508.279 267.909V249.799C508.279 248.089 508.616 246.396 509.27 244.816C509.925 243.236 510.884 241.801 512.093 240.592C513.302 239.383 514.737 238.424 516.317 237.769C517.897 237.115 519.59 236.778 521.3 236.778H561.562C565.016 236.778 568.328 235.406 570.77 232.964C573.212 230.522 574.583 227.211 574.583 223.757Z" fill="#D2F8DB"/>
<path d="M340.677 195.509C366.612 195.509 387.636 174.485 387.636 148.55C387.636 122.615 366.612 101.591 340.677 101.591C314.742 101.591 293.718 122.615 293.718 148.55C293.718 174.485 314.742 195.509 340.677 195.509Z" fill="#36B843"/>
<path d="M324.052 138.772C324.052 138.714 324.052 138.656 324.052 138.597C324.052 135.319 325.021 132.115 326.837 129.386C328.653 126.657 331.235 124.526 334.259 123.261C337.283 121.995 340.614 121.652 343.832 122.274C347.05 122.896 350.013 124.455 352.348 126.756C354.682 129.057 356.285 131.997 356.953 135.206C357.622 138.415 357.327 141.75 356.106 144.792C354.884 147.834 352.791 150.447 350.089 152.303C347.386 154.158 344.196 155.174 340.918 155.221V170.318" stroke="#F9AE2B" stroke-width="4" stroke-linecap="round" stroke-linejoin="round"/>
<path d="M419.668 116.939H451.971" stroke="#36B843" stroke-width="3" stroke-miterlimit="10" stroke-linecap="round"/>
<path d="M419.668 126.25H451.971" stroke="#36B843" stroke-width="3" stroke-miterlimit="10" stroke-linecap="round"/>
<path d="M419.668 135.56H451.971" stroke="#36B843" stroke-width="3" stroke-miterlimit="10" stroke-linecap="round"/>
<path d="M119.153 293.762H151.456" stroke="#36B843" stroke-width="3" stroke-miterlimit="10" stroke-linecap="round"/>
<path d="M119.153 303.072H151.456" stroke="#36B843" stroke-width="3" stroke-miterlimit="10" stroke-linecap="round"/>
<path d="M119.153 312.383H151.456" stroke="#36B843" stroke-width="3" stroke-miterlimit="10" stroke-linecap="round"/>
<path d="M481.64 360.156H513.943" stroke="#36B843" stroke-width="3" stroke-miterlimit="10" stroke-linecap="round"/>
<path d="M481.64 369.467H513.943" stroke="#36B843" stroke-width="3" stroke-miterlimit="10" stroke-linecap="round"/>
<path d="M481.64 378.777H513.943" stroke="#36B843" stroke-width="3" stroke-miterlimit="10" stroke-linecap="round"/>
<path d="M520.577 314.303C528.202 314.303 534.384 308.121 534.384 300.496C534.384 292.871 528.202 286.689 520.577 286.689C512.952 286.689 506.77 292.871 506.77 300.496C506.77 308.121 512.952 314.303 520.577 314.303Z" fill="#51C66C" fill-opacity="0.69"/>
<path d="M484.141 317.62C488.095 317.62 491.3 314.415 491.3 310.461C491.3 306.507 488.095 303.302 484.141 303.302C480.187 303.302 476.982 306.507 476.982 310.461C476.982 314.415 480.187 317.62 484.141 317.62Z" fill="#51C66C" fill-opacity="0.69"/>
<path d="M502.32 276.939C507.969 276.939 512.548 272.36 512.548 266.711C512.548 261.062 507.969 256.483 502.32 256.483C496.671 256.483 492.092 261.062 492.092 266.711C492.092 272.36 496.671 276.939 502.32 276.939Z" fill="#51C66C" fill-opacity="0.69"/>
<path d="M206.393 406.102C215.466 406.102 222.821 398.747 222.821 389.674C222.821 380.601 215.466 373.246 206.393 373.246C197.32 373.246 189.965 380.601 189.965 389.674C189.965 398.747 197.32 406.102 206.393 406.102Z" fill="#51C66C" fill-opacity="0.69"/>
<path d="M175.001 386.531C179.727 386.531 183.558 382.7 183.558 377.974C183.558 373.248 179.727 369.417 175.001 369.417C170.275 369.417 166.444 373.248 166.444 377.974C166.444 382.7 170.275 386.531 175.001 386.531Z" fill="#51C66C" fill-opacity="0.69"/>
<path d="M182.861 353.822C185.587 353.822 187.797 351.612 187.797 348.886C187.797 346.16 185.587 343.95 182.861 343.95C180.135 343.95 177.925 346.16 177.925 348.886C177.925 351.612 180.135 353.822 182.861 353.822Z" fill="#51C66C" fill-opacity="0.69"/>
<path d="M210.185 364.211C216.72 364.211 222.018 358.913 222.018 352.378C222.018 345.843 216.72 340.545 210.185 340.545C203.65 340.545 198.352 345.843 198.352 352.378C198.352 358.913 203.65 364.211 210.185 364.211Z" fill="#51C66C" fill-opacity="0.69"/>
<path d="M218.423 159.487C227.496 159.487 234.851 152.132 234.851 143.059C234.851 133.986 227.496 126.631 218.423 126.631C209.35 126.631 201.995 133.986 201.995 143.059C201.995 152.132 209.35 159.487 218.423 159.487Z" fill="#51C66C" fill-opacity="0.69"/>
<path d="M219.09 118.121C223.816 118.121 227.647 114.29 227.647 109.564C227.647 104.838 223.816 101.007 219.09 101.007C214.364 101.007 210.533 104.838 210.533 109.564C210.533 114.29 214.364 118.121 219.09 118.121Z" fill="#51C66C" fill-opacity="0.69"/>
<path d="M276.085 121.97C280.175 121.97 283.491 118.654 283.491 114.564C283.491 110.474 280.175 107.158 276.085 107.158C271.995 107.158 268.679 110.474 268.679 114.564C268.679 118.654 271.995 121.97 276.085 121.97Z" fill="#51C66C" fill-opacity="0.69"/>
<path d="M249.141 112.303C251.867 112.303 254.077 110.093 254.077 107.367C254.077 104.641 251.867 102.431 249.141 102.431C246.415 102.431 244.205 104.641 244.205 107.367C244.205 110.093 246.415 112.303 249.141 112.303Z" fill="#51C66C" fill-opacity="0.69"/>
<path d="M254.877 146.143C261.412 146.143 266.71 140.845 266.71 134.31C266.71 127.775 261.412 122.477 254.877 122.477C248.342 122.477 243.044 127.775 243.044 134.31C243.044 140.845 248.342 146.143 254.877 146.143Z" fill="#51C66C" fill-opacity="0.69"/>
<path d="M480.858 233.243H202.622L193.549 210.243H480.858C481.216 210.243 481.569 210.313 481.9 210.45C482.23 210.587 482.53 210.787 482.783 211.04C483.035 211.293 483.236 211.593 483.373 211.923C483.509 212.253 483.58 212.607 483.58 212.965V230.521C483.58 230.879 483.509 231.233 483.373 231.563C483.236 231.893 483.035 232.193 482.783 232.446C482.53 232.699 482.23 232.899 481.9 233.036C481.569 233.173 481.215 233.243 480.858 233.243Z" fill="#51C66C"/>
<path d="M440.323 354.089H251.127C250.204 354.089 249.302 353.808 248.544 353.282C247.785 352.756 247.204 352.011 246.88 351.147L202.622 233.243H471.169L444.748 350.55C444.522 351.554 443.96 352.452 443.156 353.096C442.352 353.739 441.353 354.089 440.323 354.089Z" fill="#F9AE2B"/>
<path d="M457.562 293.669C438.207 294.91 418.852 295.56 399.497 296.001C389.82 296.277 380.142 296.339 370.465 296.501L341.432 296.667C322.077 296.685 302.722 296.466 283.367 296.01C264.012 295.57 244.657 294.918 225.302 293.669C244.657 292.42 264.012 291.767 283.367 291.328C302.722 290.893 322.077 290.674 341.432 290.671L370.465 290.836C380.142 290.999 389.82 291.06 399.497 291.337C418.852 291.778 438.207 292.428 457.562 293.669Z" fill="#36B843"/>
<path d="M419.704 233.243C418.601 243.789 416.916 254.204 415.056 264.579C413.171 274.948 411.068 285.269 408.747 295.54C406.438 305.814 403.916 316.04 401.181 326.219C399.801 331.305 398.372 336.38 396.846 341.433C396.057 343.954 395.306 346.483 394.485 348.997L393.853 350.907C393.605 351.608 393.201 352.244 392.672 352.766C392.175 353.257 391.575 353.631 390.915 353.86C390.255 354.089 389.552 354.168 388.858 354.089C389.485 354.015 390.088 353.806 390.627 353.477C391.165 353.147 391.626 352.705 391.978 352.181C392.306 351.698 392.522 351.148 392.611 350.57L392.863 348.632C393.199 346.009 393.605 343.402 393.972 340.786C394.761 335.567 395.645 330.369 396.579 325.182C398.464 314.812 400.569 304.492 402.895 294.222C405.213 283.95 407.737 273.724 410.469 263.546C413.236 253.375 416.179 243.243 419.704 233.243ZM311.586 354.089C310.864 354.167 310.133 354.076 309.452 353.823C308.771 353.57 308.158 353.162 307.662 352.631C307.175 352.072 306.785 351.436 306.506 350.749L305.61 348.892C304.415 346.416 303.289 343.914 302.125 341.426C299.847 336.431 297.662 331.402 295.522 326.356C291.261 316.257 287.21 306.078 283.368 295.822C279.514 285.569 275.865 275.24 272.42 264.834C269.004 254.418 265.76 243.936 263.081 233.243C268.1 243.058 272.554 253.085 276.837 263.176C281.098 273.276 285.146 283.455 288.984 293.714C292.83 303.969 296.476 314.299 299.924 324.704C301.633 329.912 303.297 335.136 304.869 340.396C305.629 343.035 306.428 345.66 307.158 348.311L307.705 350.299C307.83 350.923 308.055 351.523 308.372 352.075C308.722 352.63 309.192 353.1 309.749 353.449C310.305 353.798 310.933 354.017 311.586 354.089Z" fill="#36B843"/>
<path d="M298.105 446.801C308.457 446.801 316.848 438.409 316.848 428.058C316.848 417.707 308.457 409.315 298.105 409.315C287.754 409.315 279.362 417.707 279.362 428.058C279.362 438.409 287.754 446.801 298.105 446.801Z" fill="#36B843"/>
<path d="M298.105 436.709C302.883 436.709 306.756 432.836 306.756 428.058C306.756 423.28 302.883 419.407 298.105 419.407C293.327 419.407 289.454 423.28 289.454 428.058C289.454 432.836 293.327 436.709 298.105 436.709Z" fill="#DBE8EC"/>
<path d="M406.224 446.801C416.575 446.801 424.967 438.409 424.967 428.058C424.967 417.707 416.575 409.315 406.224 409.315C395.872 409.315 387.481 417.707 387.481 428.058C387.481 438.409 395.872 446.801 406.224 446.801Z" fill="#36B843"/>
<path d="M406.224 436.709C411.002 436.709 414.875 432.836 414.875 428.058C414.875 423.28 411.002 419.407 406.224 419.407C401.446 419.407 397.573 423.28 397.573 428.058C397.573 432.836 401.446 436.709 406.224 436.709Z" fill="#DBE8EC"/>
<path d="M343.092 233.243C344.932 243.24 346.175 253.272 347.239 263.315C348.278 273.359 349.094 283.417 349.686 293.488C350.291 303.558 350.678 313.641 350.847 323.737C350.985 333.835 350.94 343.944 350.292 354.089C348.445 344.093 347.2 334.061 346.138 324.018C345.099 313.974 344.286 303.916 343.699 293.845C343.102 283.774 342.718 273.691 342.546 263.594C342.41 253.496 342.453 243.387 343.092 233.243Z" fill="#36B843"/>
<path d="M437.938 399.801H268.384C267.777 399.801 267.185 399.617 266.684 399.273C266.184 398.93 265.8 398.442 265.583 397.876L167.385 141.898H115.371C114.575 141.898 113.812 141.582 113.25 141.019C112.687 140.457 112.371 139.694 112.371 138.898C112.371 138.102 112.687 137.339 113.25 136.777C113.812 136.214 114.575 135.898 115.371 135.898H169.447C170.054 135.898 170.647 136.082 171.147 136.426C171.647 136.77 172.031 137.257 172.248 137.824L270.446 393.801H437.938C438.733 393.801 439.496 394.117 440.059 394.68C440.622 395.243 440.938 396.006 440.938 396.801C440.938 397.597 440.622 398.36 440.059 398.923C439.496 399.485 438.733 399.801 437.938 399.801Z" fill="#51C66C"/>
<path d="M141.458 130.248H105.858C104.753 130.248 103.858 131.143 103.858 132.248V146.608C103.858 147.713 104.753 148.608 105.858 148.608H141.458C142.562 148.608 143.458 147.713 143.458 146.608V132.248C143.458 131.143 142.562 130.248 141.458 130.248Z" fill="#51C66C"/>
<path d="M340.677 182.3C342.168 182.3 343.377 181.091 343.377 179.6C343.377 178.109 342.168 176.9 340.677 176.9C339.186 176.9 337.977 178.109 337.977 179.6C337.977 181.091 339.186 182.3 340.677 182.3Z" fill="#F9AE2B"/>
</svg>
