<svg width="19" height="16" viewBox="0 0 19 16" fill="none" xmlns="http://www.w3.org/2000/svg">
<path d="M8.47998 1.33228V1.05103C8.47998 0.586963 8.10029 0.207275 7.63623 0.207275H4.82373C4.35967 0.207275 3.97998 0.586963 3.97998 1.05103V1.33228H0.60498V3.58228H3.97998V3.86353C3.97998 4.32759 4.35967 4.70728 4.82373 4.70728H7.63623C8.10029 4.70728 8.47998 4.32759 8.47998 3.86353V3.58228H18.605V1.33228H8.47998ZM5.10498 3.58228V1.33228H7.35498V3.58228H5.10498ZM15.23 6.67603C15.23 6.21196 14.8503 5.83228 14.3862 5.83228H11.5737C11.1097 5.83228 10.73 6.21196 10.73 6.67603V6.95728H0.60498V9.20728H10.73V9.48853C10.73 9.95259 11.1097 10.3323 11.5737 10.3323H14.3862C14.8503 10.3323 15.23 9.95259 15.23 9.48853V9.20728H18.605V6.95728H15.23V6.67603ZM11.855 9.20728V6.95728H14.105V9.20728H11.855ZM8.47998 12.301C8.47998 11.837 8.10029 11.4573 7.63623 11.4573H4.82373C4.35967 11.4573 3.97998 11.837 3.97998 12.301V12.5823H0.60498V14.8323H3.97998V15.1135C3.97998 15.5776 4.35967 15.9573 4.82373 15.9573H7.63623C8.10029 15.9573 8.47998 15.5776 8.47998 15.1135V14.8323H18.605V12.5823H8.47998V12.301ZM5.10498 14.8323V12.5823H7.35498V14.8323H5.10498Z" fill="#B8B8B8"/>
</svg>
