<svg width="15" height="13" viewBox="0 0 15 13" fill="none" xmlns="http://www.w3.org/2000/svg">
<path d="M6.58266 1.73075V1.51903C6.58266 1.1697 6.29375 0.883881 5.94065 0.883881H3.80062C3.44751 0.883881 3.15861 1.1697 3.15861 1.51903V1.73075H0.590576V3.42448H3.15861V3.6362C3.15861 3.98553 3.44751 4.27135 3.80062 4.27135H5.94065C6.29375 4.27135 6.58266 3.98553 6.58266 3.6362V3.42448H14.2868V1.73075H6.58266ZM4.01462 3.42448V1.73075H5.72665V3.42448H4.01462ZM11.7187 5.75337C11.7187 5.40403 11.4298 5.11822 11.0767 5.11822H8.93669C8.58358 5.11822 8.29468 5.40403 8.29468 5.75337V5.96508H0.590576V7.65882H8.29468V7.87053C8.29468 8.21987 8.58358 8.50569 8.93669 8.50569H11.0767C11.4298 8.50569 11.7187 8.21987 11.7187 7.87053V7.65882H14.2868V5.96508H11.7187V5.75337ZM9.15069 7.65882V5.96508H10.8627V7.65882H9.15069ZM6.58266 9.9877C6.58266 9.63837 6.29375 9.35255 5.94065 9.35255H3.80062C3.44751 9.35255 3.15861 9.63837 3.15861 9.9877V10.1994H0.590576V11.8932H3.15861V12.1049C3.15861 12.4542 3.44751 12.74 3.80062 12.74H5.94065C6.29375 12.74 6.58266 12.4542 6.58266 12.1049V11.8932H14.2868V10.1994H6.58266V9.9877ZM4.01462 11.8932V10.1994H5.72665V11.8932H4.01462Z" fill="#B8B8B8"/>
</svg>
