<svg width="17" height="14" viewBox="0 0 17 14" fill="none" xmlns="http://www.w3.org/2000/svg">
<path d="M15.5084 1.38155C13.5803 -0.416584 10.497 -0.454086 8.49983 1.23754C6.50209 -0.454086 3.41994 -0.416584 1.49074 1.38155C-0.496912 3.23369 -0.496912 6.23642 1.49074 8.08956C2.05871 8.6191 7.36335 13.5605 7.36335 13.5605C7.9919 14.1465 9.0083 14.1465 9.63632 13.5605C9.63632 13.5605 15.4446 8.14906 15.5089 8.08956C17.4971 6.23642 17.4971 3.23369 15.5084 1.38155ZM14.7513 7.3835L8.87866 12.8544C8.66985 13.0499 8.32928 13.0499 8.12154 12.8544L2.24892 7.3835C0.681544 5.92339 0.681544 3.54771 2.24892 2.0876C3.75998 0.679999 6.18915 0.630495 7.77937 1.9766L8.49983 2.58664L9.21976 1.9766C10.8105 0.630495 13.2397 0.679499 14.7507 2.0876C16.3181 3.54721 16.3181 5.92289 14.7513 7.3835ZM4.91399 2.49964C5.06117 2.49964 5.17965 2.61164 5.17965 2.74965C5.17965 2.88766 5.06064 2.99967 4.91399 2.99967C3.96082 2.99967 3.18722 3.72723 3.18722 4.6243C3.18722 4.76231 3.06821 4.87481 2.92156 4.87481C2.77492 4.87481 2.65591 4.76281 2.65591 4.6248C2.65591 3.45171 3.66594 2.50114 4.91187 2.50014L4.91399 2.49964Z" fill="#36B843"/>
</svg>
