<svg width="17" height="14" viewBox="0 0 17 14" fill="none" xmlns="http://www.w3.org/2000/svg">
<path d="M15.5719 2.00319C13.7331 0.31 10.7929 0.274687 8.88834 1.86758C6.98325 0.274687 4.04404 0.31 2.20431 2.00319C0.308849 3.74723 0.308849 6.5747 2.20431 8.31968C2.74595 8.81832 7.80457 13.4713 7.80457 13.4713C8.40396 14.0231 9.37323 14.0231 9.97212 13.4713C9.97212 13.4713 15.5111 8.37572 15.5724 8.31968C17.4683 6.5747 17.4683 3.74723 15.5719 2.00319ZM14.8499 7.65484L9.2496 12.8064C9.05048 12.9905 8.7257 12.9905 8.52759 12.8064L2.92734 7.65484C1.43265 6.27995 1.43265 4.04292 2.92734 2.66803C4.36831 1.34258 6.68482 1.29597 8.20129 2.5635L8.88834 3.13794L9.57488 2.5635C11.0919 1.29597 13.4084 1.34211 14.8493 2.66803C16.344 4.04245 16.344 6.27948 14.8499 7.65484ZM5.46881 3.05602C5.60916 3.05602 5.72214 3.16149 5.72214 3.29144C5.72214 3.4214 5.60865 3.52687 5.46881 3.52687H5.4683C4.55933 3.52687 3.82212 4.21196 3.82212 5.05667V5.05714C3.82212 5.1871 3.70862 5.29257 3.56878 5.29257C3.42894 5.29257 3.31545 5.1871 3.31545 5.05714C3.31545 3.95252 4.27863 3.05743 5.46678 3.05649C5.46779 3.05649 5.46779 3.05602 5.46881 3.05602Z" fill="white"/>
<path d="M2.7341 1.94032L6.11895 1.15599L8.71978 2.68335L11.2376 1.44496H13.3023L15.9847 2.9723L16.315 6.60489L13.3023 10.1136L8.71978 13.416L2.48617 8.04967L1.28906 4.5822L2.7341 1.94032Z" fill="white"/>
</svg>
