<svg width="19" height="25" viewBox="0 0 19 25" fill="none" xmlns="http://www.w3.org/2000/svg">
<path d="M8.05431 0.69751C7.43235 0.69751 6.92758 1.36801 6.92758 2.19751V9.69751H5.80086V2.19751C5.80086 1.36801 5.29608 0.69751 4.67413 0.69751C4.05218 0.69751 3.54741 1.36801 3.54741 2.19751V9.69751H2.42068V2.19751C2.42068 1.36801 1.91591 0.69751 1.29396 0.69751C0.672009 0.69751 0.167236 1.36801 0.167236 2.19751V11.1975C0.167236 12.027 0.672009 12.6975 1.29396 12.6975H3.54741V23.1975C3.54741 24.027 4.05218 24.6975 4.67413 24.6975C5.29608 24.6975 5.80086 24.027 5.80086 23.1975V12.6975H8.05431C8.67626 12.6975 9.18103 12.027 9.18103 11.1975V2.19751C9.18103 1.36801 8.67626 0.69751 8.05431 0.69751ZM15.9414 0.69751C15.9414 0.69751 13.6879 1.66501 13.6879 5.19751V8.19751C13.6879 10.155 14.631 11.802 15.9414 12.4215V23.1975C15.9414 24.027 16.4461 24.6975 17.0681 24.6975C17.6901 24.6975 18.1948 24.027 18.1948 23.1975V0.69751H15.9414Z" fill="#9DACB3"/>
</svg>
