<svg width="19" height="19" viewBox="0 0 19 19" fill="none" xmlns="http://www.w3.org/2000/svg">
<path d="M3.24023 7.57329V5.77329C3.24023 2.79069 5.92623 0.373291 9.24023 0.373291C12.5542 0.373291 15.2402 2.79069 15.2402 5.77329V7.57329H16.2402C17.3452 7.57329 18.2402 8.37879 18.2402 9.37329V16.5733C18.2402 17.5678 17.3452 18.3733 16.2402 18.3733H2.24023C1.13523 18.3733 0.240234 17.5678 0.240234 16.5733V9.37329C0.240234 8.38329 1.14023 7.57329 2.24023 7.57329H3.24023ZM8.24023 13.6303V15.6733H10.2402V13.6303C10.8422 13.3135 11.2402 12.7339 11.2402 12.0715C11.2402 11.077 10.3452 10.2715 9.24023 10.2715C8.13523 10.2715 7.24023 11.077 7.24023 12.0715C7.24023 12.7339 7.63823 13.3135 8.23123 13.6258L8.24023 13.6303ZM6.24023 5.77329V7.57329H12.2402V5.77329C12.2402 4.28199 10.8972 3.07329 9.24023 3.07329C7.58323 3.07329 6.24023 4.28199 6.24023 5.77329Z" fill="#36B843"/>
</svg>
