<svg width="24" height="23" viewBox="0 0 24 23" fill="none" xmlns="http://www.w3.org/2000/svg">
<path fill-rule="evenodd" clip-rule="evenodd" d="M2.24097 0.957031C1.1364 0.957031 0.240967 1.85246 0.240967 2.95703V20.957C0.240967 22.0616 1.1364 22.957 2.24097 22.957H15.2172C16.3217 22.957 17.2172 22.0616 17.2172 20.957V13.0322H8.99859V11.0322H17.2172V2.95703C17.2172 1.85246 16.3217 0.957031 15.2172 0.957031H2.24097Z" fill="#9DACB3"/>
<rect x="17.2173" y="10.9794" width="6.52844" height="2.0929" fill="#9DACB3"/>
<path d="M20.1821 7.97937L20.7186 8.19886L21.2178 8.5535L21.7432 9.01614L22.1982 9.46082L23.1943 10.4127L23.7529 10.9794H20.1821V7.97937Z" fill="#9DACB3"/>
<path d="M20.1748 16.0723L20.7112 15.8528L21.2105 15.4981L21.7359 15.0355L22.1909 14.5908L23.187 13.6389L23.7456 13.0723H20.1748V16.0723Z" fill="#9DACB3"/>
</svg>
