<svg width="79" height="63" viewBox="0 0 79 63" fill="none" xmlns="http://www.w3.org/2000/svg">
<ellipse cx="40.5609" cy="30.6455" rx="26.389" ry="25.4045" fill="url(#paint0_radial_44_4978)"/>
<ellipse cx="40.5606" cy="30.6456" rx="14.9155" ry="14.3591" fill="#40BB4C"/>
<path d="M4.91483 27.8382C4.9587 26.5553 6.01133 25.5381 7.29489 25.5381C8.57306 25.5381 9.62329 26.5471 9.67443 27.8242L10.937 59.3533C10.9615 59.9646 10.8092 60.5701 10.4983 61.0971C9.91935 62.0786 8.85975 62.6755 7.72032 62.6621L6.86827 62.6521C5.74087 62.6388 4.71126 62.0093 4.18564 61.0118C3.93632 60.5387 3.81479 60.0086 3.83307 59.4741L4.91483 27.8382Z" fill="#36B843"/>
<rect x="0.40625" y="5.21509" width="2.27593" height="19.8303" fill="#36B843"/>
<rect x="11.896" y="5.21509" width="2.27593" height="19.8303" fill="#36B843"/>
<rect x="5.91211" y="5.24097" width="1.37682" height="22.0596" fill="#36B843"/>
<rect x="7.28857" y="5.24097" width="1.37682" height="23.9837" fill="#36B843"/>
<rect x="0.40625" y="18.4633" width="13.7657" height="8.8373" rx="1" fill="#36B843"/>
<path d="M71.5811 36.0858C71.5811 34.861 71.8045 33.6464 72.2405 32.5018L72.4252 32.0171C72.4979 31.8261 72.5862 31.6414 72.6891 31.4647L73.1419 30.6878C73.5324 30.0177 74.2495 29.6056 75.0251 29.6056C75.6244 29.6056 76.1973 29.8524 76.609 30.288L76.7687 30.4569C77.1174 30.8258 77.3559 31.2849 77.4571 31.7823L77.8767 33.8436C78.0115 34.5057 78.0794 35.1796 78.0794 35.8553V36.311V42.0312L78.4591 53.0664V59.2588C78.4591 61.1581 76.9194 62.6977 75.0202 62.6977C73.1209 62.6977 71.5813 61.1581 71.5813 59.2589L71.5811 48.5397V36.0858Z" fill="#36B843"/>
<path d="M69.2646 16.0857V9.56326L69.8531 7.23628L71.0289 5.15301L72.3396 3.33275L73.2015 2.4679L74.2087 1.78525L75.5554 1.18231L77.3249 0.614258V2.89279V31.6726H69.2647L69.2646 16.0857Z" fill="#36B843"/>
<defs>
<radialGradient id="paint0_radial_44_4978" cx="0" cy="0" r="1" gradientUnits="userSpaceOnUse" gradientTransform="translate(40.5609 30.6455) rotate(90) scale(25.4045 26.389)">
<stop offset="0.739483" stop-color="white" stop-opacity="0.05"/>
<stop offset="0.739583" stop-color="#40BB4C"/>
</radialGradient>
</defs>
</svg>
