<svg width="11" height="11" viewBox="0 0 11 11" fill="none" xmlns="http://www.w3.org/2000/svg">
<path d="M10.0433 2.74305L9.69619 2.39592C9.69701 2.3951 9.69765 2.39442 9.69813 2.39388L10.0433 2.74305ZM10.0433 2.74305L9.69619 2.39592L9.07481 3.0173M10.0433 2.74305L9.07481 3.0173M10.0497 1.99961L9.69619 2.35316L8.44606 1.10303C8.44523 1.10221 8.44455 1.10157 8.44402 1.10109L10.0497 1.99961ZM10.0497 1.99961L9.69619 2.35316C9.69701 2.35399 9.69765 2.35467 9.69813 2.3552L10.0497 1.99961ZM9.07481 3.0173L7.78192 1.72441L8.4033 1.10303L8.05299 0.75272L8.4033 1.10303C8.40412 1.10221 8.4048 1.10157 8.40533 1.10109L9.07481 3.0173ZM2.3925 9.69961H1.09961V8.40672L6.49988 3.00645L7.79277 4.29934L2.3925 9.69961Z" stroke="#F5F5F5"/>
</svg>
