<?xml version="1.0" encoding="utf-8"?>
<!-- Svg Vector Icons : http://www.onlinewebfonts.com/icon -->
<!DOCTYPE svg PUBLIC "-//W3C//DTD SVG 1.1//EN" "http://www.w3.org/Graphics/SVG/1.1/DTD/svg11.dtd">
<svg version="1.1" xmlns="http://www.w3.org/2000/svg" xmlns:xlink="http://www.w3.org/1999/xlink" x="0px" y="0px" viewBox="0 0 256 256" enable-background="new 0 0 256 256" xml:space="preserve">
<metadata> Svg Vector Icons : http://www.onlinewebfonts.com/icon </metadata>
<g><g><path fill="#36B843" d="M43.7,161.8h168.3v16.8H43.7V161.8L43.7,161.8z"/><path fill="#36B843" d="M43.8,111.2h84.1V128H43.8V111.2L43.8,111.2z"/><path fill="#36B843" d="M217.1,229.1H38.9c-16,0-28.9-12.8-28.9-28.6V55.5c0-15.7,13-28.5,28.9-28.5h178.1c16,0,28.9,12.8,28.9,28.5v145.1C246,216.3,233,229.1,217.1,229.1L217.1,229.1z M38.9,43.7c-6.7,0-12.2,5.3-12.2,11.8v145.1c0,6.5,5.4,11.8,12.2,11.8h178.1c6.7,0,12.2-5.3,12.2-11.8V55.5c0-6.5-5.4-11.8-12.2-11.8H38.9L38.9,43.7z"/><path fill="#36B843" d="M161.7,77.4h33.7v33.7h-33.7V77.4L161.7,77.4z"/></g></g>
</svg>
