<svg width="23" height="18" viewBox="0 0 23 18" fill="none" xmlns="http://www.w3.org/2000/svg">
<path d="M12.5243 12.2655L4.97821 4.71942C4.45751 4.19872 3.61329 4.19872 3.09259 4.71942L1.19956 6.61245C0.678864 7.13315 0.678863 7.97737 1.19956 8.49807L8.74562 16.0441C9.26632 16.5648 10.1105 16.5648 10.6312 16.0441L12.5243 14.1511C13.045 13.6304 13.045 12.7862 12.5243 12.2655Z" fill="white"/>
<path d="M18.202 1.01917L6.90716 12.314C6.38647 12.8347 6.38647 13.6789 6.90716 14.1996L8.80019 16.0927C9.32089 16.6134 10.1651 16.6134 10.6858 16.0927L21.9807 4.79782C22.5014 4.27712 22.5014 3.4329 21.9807 2.9122L20.0876 1.01917C19.5669 0.498475 18.7227 0.498475 18.202 1.01917Z" fill="white"/>
</svg>
