<svg width="61" height="61" viewBox="0 0 61 61" fill="none" xmlns="http://www.w3.org/2000/svg">
<path d="M59.7906 48.7518L41.5881 30.5493L59.7906 12.3468C59.9856 12.1518 60.1281 11.9231 60.2181 11.6793C60.4656 11.0118 60.3231 10.2318 59.7906 9.69556L51.1919 1.09681C50.6556 0.560563 49.8756 0.418063 49.2081 0.669313C48.9644 0.759313 48.7356 0.901813 48.5406 1.09681L30.3381 19.2993L12.1356 1.09681C11.9406 0.901813 11.7119 0.759313 11.4681 0.669313C10.8006 0.421813 10.0206 0.560563 9.48438 1.09681L0.885632 9.69556C0.349382 10.2318 0.206882 11.0118 0.458132 11.6793C0.548132 11.9231 0.690632 12.1518 0.885632 12.3468L19.0881 30.5493L0.885632 48.7518C0.690632 48.9468 0.548132 49.1756 0.458132 49.4193C0.210632 50.0868 0.349382 50.8668 0.885632 51.4031L9.48438 60.0018C10.0206 60.5381 10.8006 60.6806 11.4681 60.4293C11.7119 60.3393 11.9406 60.1968 12.1356 60.0018L30.3381 41.7993L48.5406 60.0018C48.7356 60.1968 48.9644 60.3393 49.2081 60.4293C49.8756 60.6768 50.6556 60.5381 51.1919 60.0018L59.7906 51.4031C60.3269 50.8668 60.4694 50.0868 60.2181 49.4193C60.1281 49.1756 59.9856 48.9468 59.7906 48.7518Z" fill="#F45656"/>
</svg>
