<svg width="19" height="19" viewBox="0 0 19 19" fill="none" xmlns="http://www.w3.org/2000/svg">
<path d="M12.1507 13.6729C10.8903 14.6601 9.28185 15.2559 7.53419 15.2559C3.37856 15.2559 0.00927734 11.8847 0.00927734 7.72676C0.00927734 3.5688 3.37856 0.197632 7.53419 0.197632C11.6898 0.197632 15.0591 3.5688 15.0591 7.72676C15.0591 9.4754 14.4637 11.0838 13.4648 12.3619L13.477 12.3449L18.5093 17.3612L17.1736 18.6976L12.1601 13.6719L12.1507 13.6729ZM7.54172 13.3717C10.6589 13.3717 13.1854 10.8438 13.1854 7.72487C13.1854 4.60593 10.6589 2.07803 7.54172 2.07803C4.42452 2.07803 1.89803 4.60593 1.89803 7.72487C1.89803 10.8438 4.42452 13.3717 7.54172 13.3717Z" fill="#828282"/>
</svg>
