<svg width="19" height="19" viewBox="0 0 19 19" fill="none" xmlns="http://www.w3.org/2000/svg">
<path d="M16.0916 6.10254C16.3609 6.11739 16.5324 6.13307 16.5771 6.14902C16.5821 6.1508 16.5855 6.15258 16.5873 6.15437L16.6887 5.67218C16.8595 5.70808 16.9604 5.81404 17.0135 5.89316M16.0916 6.10254L7.02249 12.2635M16.0916 6.10254C16.0943 6.07889 16.0989 6.05456 16.1055 6.02962C16.1503 5.86109 16.2651 5.77555 16.2999 5.75133L15.8155 6.08905L16.0916 6.10254ZM17.0135 5.89316C17.0706 5.98622 17.1152 6.12368 17.0719 6.28657C17.0265 6.45736 16.9098 6.54517 16.8718 6.57165L16.6057 6.18995C16.6669 6.42255 16.3324 8.02888 15.9811 9.7163C15.8335 10.4249 15.683 11.1478 15.5576 11.7892M17.0135 5.89316C16.9966 5.86561 16.9786 5.84196 16.9615 5.82269C16.8977 5.75081 16.8291 5.71535 16.8038 5.70285C16.771 5.68671 16.7424 5.67684 16.725 5.6713C16.6649 5.65227 16.602 5.64342 16.5675 5.63888C16.4822 5.62759 16.363 5.61804 16.2245 5.60945C15.9424 5.59196 15.533 5.57575 15.041 5.56143C14.0551 5.53273 12.719 5.51108 11.3643 5.50269C10.0099 5.49431 8.63253 5.49915 7.56482 5.52368C7.03185 5.53593 6.57044 5.5532 6.22577 5.57669C6.16716 5.58068 6.111 5.58492 6.05769 5.58943M17.0135 5.89316C17.0266 5.9127 17.0368 5.93059 17.0445 5.9454C17.0837 6.02145 17.0972 6.0921 17.1029 6.12833C17.115 6.20582 17.1139 6.28468 17.1113 6.34323C17.1056 6.46908 17.0855 6.63162 17.0584 6.81089C17.0034 7.17495 16.9089 7.67365 16.7969 8.23268C16.6969 8.73147 16.5836 9.27546 16.469 9.82584C16.3226 10.5288 16.174 11.2423 16.0483 11.8852M15.5576 11.7892C15.5231 11.9677 15.4331 12.1218 15.3086 12.2337M15.5576 11.7892L16.0485 11.8841C16.0484 11.8845 16.0483 11.8848 16.0483 11.8852M15.5576 11.7892L16.0483 11.8852M15.3086 12.2337C15.1736 12.3558 14.9988 12.4263 14.7926 12.4224M15.3086 12.2337L15.6439 12.6046C15.6438 12.6048 15.6436 12.6049 15.6434 12.6051M15.3086 12.2337L15.6428 12.6056C15.643 12.6054 15.6432 12.6053 15.6434 12.6051M14.7926 12.4224H7.492M14.7926 12.4224V12.9224H14.7883M14.7926 12.4224L14.7831 12.9223C14.7848 12.9223 14.7866 12.9223 14.7883 12.9224M7.492 12.4224C7.318 12.4247 7.15375 12.3668 7.02249 12.2635M7.492 12.4224L7.49875 12.9223C7.49747 12.9223 7.4962 12.9223 7.49492 12.9224M7.492 12.4224V12.9224H7.49492M7.02249 12.2635C6.87999 12.1516 6.77574 11.9888 6.73824 11.7916M7.02249 12.2635L6.71325 12.6564C6.93188 12.8285 7.20579 12.9254 7.49492 12.9224M6.73824 11.7916C6.60421 11.1592 6.45035 10.4729 6.30039 9.80397C6.01432 8.52788 5.74245 7.31514 5.64953 6.66149H5.14487M6.73824 11.7916L6.24704 11.885C6.24741 11.8869 6.24778 11.8888 6.24815 11.8907M6.73824 11.7916L6.24911 11.8953C6.24879 11.8938 6.24847 11.8922 6.24815 11.8907M5.14487 6.66149C5.12765 6.53003 5.11622 6.40768 5.11582 6.30616C5.11567 6.2692 5.11663 6.21805 5.1243 6.16149C5.12722 6.13986 5.13113 6.11744 5.13633 6.09472L5.0533 5.66149M5.14487 6.66149H4.74247C4.73928 6.66149 4.73609 6.66148 4.7329 6.66145M5.14487 6.66149C5.14971 6.69839 5.155 6.73601 5.16063 6.77409C5.21326 7.12986 5.31052 7.62025 5.42834 8.17334C5.54127 8.70348 5.6755 9.30222 5.81222 9.91211L5.83202 10.0005C5.97549 10.6405 6.12086 11.2904 6.24815 11.8907M5.0533 5.66149H5.5624H5.56856C5.58601 5.6565 5.60053 5.65296 5.61091 5.65046C5.66576 5.63725 5.72563 5.62709 5.78471 5.61881C5.86314 5.60782 5.95512 5.59811 6.05769 5.58943M5.0533 5.66149L4.94496 5.09627H4.74247C4.62445 5.09627 4.49247 5.20276 4.49247 5.37888C4.49247 5.39643 4.49375 5.41174 4.49569 5.4244L4.49669 5.43092L4.50196 5.45843M5.0533 5.66149H4.74247C4.64297 5.66149 4.53651 5.5894 4.50203 5.45877L4.5045 5.47166L4.50452 5.47178L4.50196 5.45843M6.05769 5.58943L5.96316 5.09627H17.4926V5.09635L17.5017 5.09619C17.5016 5.09619 17.5024 5.09617 17.5041 5.09625L17.511 5.09676C17.5169 5.09734 17.5237 5.09835 17.5307 5.09981L17.5307 5.09983L17.5349 5.10066C17.6567 5.12501 17.769 5.26158 17.7372 5.43658L16.5363 12.0083C16.4538 12.4259 16.243 12.7873 15.9544 13.0469L15.9543 13.0471C15.6365 13.3332 15.2274 13.4966 14.803 13.4877L14.803 13.4876H14.7926H7.513V13.4875L7.50537 13.4876C7.11095 13.4937 6.73508 13.3609 6.43125 13.1224L6.43086 13.1221C6.09726 12.8607 5.8475 12.4721 5.75868 12.005L5.75851 12.0041L4.7329 6.66145M6.05769 5.58943L4.7329 6.66145M16.0483 11.8852C15.9929 12.1701 15.8481 12.4209 15.6434 12.6051M15.6434 12.6051C15.4157 12.8108 15.1199 12.9274 14.7883 12.9224M14.7883 12.9224H7.49492M4.50196 5.45843L4.50202 5.45873L4.50196 5.45843ZM4.7329 6.66145L6.24815 11.8907M4.75305 4.09627L4.84909 4.59627L4.86717 4.69039L4.86721 4.69059L4.86729 4.69104L0.992439 2.24844C0.578435 2.24844 0.242432 1.89784 0.242432 1.46584C0.242432 1.03384 0.578435 0.683228 0.992439 0.683228H3.99247C4.35472 0.683228 4.65697 0.95088 4.72747 1.31244L5.26219 4.09627H4.75305ZM4.75305 4.09627L4.23672 1.40814C4.23668 1.40796 4.23665 1.40778 4.23661 1.4076C4.20773 1.26072 4.09507 1.18323 3.99247 1.18323H0.992439C0.874415 1.18323 0.742432 1.28971 0.742432 1.46584C0.742432 1.64196 0.874415 1.74844 0.992439 1.74844H3.37746H3.79071L3.86852 2.1543L4.25969 4.1947C4.407 4.13149 4.5697 4.09627 4.74247 4.09627H4.75305ZM4.94513 5.09627H5.35823H5.45406H4.94513ZM7.69201 16.3574C7.8753 16.5486 7.99251 16.8174 7.99251 17.118C7.99251 17.4186 7.8753 17.6874 7.69201 17.8787C7.50906 18.0696 7.26108 18.1832 6.99249 18.1832C6.7239 18.1832 6.47592 18.0696 6.29298 17.8787C6.10969 17.6874 5.99248 17.4186 5.99248 17.118C5.99248 16.8174 6.10969 16.5486 6.29298 16.3574C6.47592 16.1665 6.7239 16.0528 6.99249 16.0528C7.26108 16.0528 7.50906 16.1665 7.69201 16.3574ZM15.9421 16.3574C16.1254 16.5486 16.2426 16.8174 16.2426 17.118C16.2426 17.4186 16.1254 17.6874 15.9421 17.8787C15.7591 18.0696 15.5112 18.1832 15.2426 18.1832C14.974 18.1832 14.726 18.0696 14.5431 17.8787C14.3598 17.6874 14.2426 17.4186 14.2426 17.118C14.2426 16.8174 14.3598 16.5486 14.5431 16.3574C14.726 16.1665 14.974 16.0528 15.2426 16.0528C15.5112 16.0528 15.7591 16.1665 15.9421 16.3574Z" stroke="#36B843"/>
<rect x="6.38794" y="16.4962" width="1.44727" height="1.57407" fill="#36B843"/>
<rect x="14.6643" y="16.4962" width="1.44727" height="1.57407" fill="#36B843"/>
</svg>
