<svg width="20" height="19" viewBox="0 0 20 19" fill="none" xmlns="http://www.w3.org/2000/svg">
<path d="M6.57104 5.6443C6.99493 5.37054 17.5466 5.50209 17.3419 5.6443C17.5198 5.68157 16.768 8.93223 16.3284 11.1722C16.2944 11.3475 16.2057 11.4989 16.083 11.6088C15.9499 11.7287 15.7777 11.7979 15.5744 11.7941H8.3785C8.207 11.7964 8.0451 11.7395 7.91573 11.638C7.77527 11.5281 7.67252 11.3682 7.63556 11.1745C7.13004 8.79778 6.33831 5.6443 6.57104 5.6443ZM6.57104 5.6443H5.66841C5.32096 5.6443 5.0297 5.39523 4.94986 5.0593M6.57104 5.6443L6.27534 4.10686M4.94986 5.0593L4.32298 1.80069H1.97216C1.56409 1.80069 1.23291 1.4563 1.23291 1.03197C1.23291 0.607632 1.56409 0.263245 1.97216 0.263245H4.92916C5.28622 0.263245 5.58414 0.526148 5.65363 0.881297L6.27534 4.10686M4.94986 5.0593C4.94469 5.03855 4.94099 5.01625 4.93803 4.99473C4.93212 4.95629 4.92916 4.91632 4.92916 4.87558C4.92916 4.45124 5.26035 4.10686 5.66841 4.10686H6.27534M4.94986 5.0593L6.18589 11.4758C6.29603 12.0531 6.60726 12.539 7.02863 12.868C7.41378 13.1693 7.89355 13.3392 8.3992 13.3315H15.5744C16.1273 13.3431 16.65 13.1309 17.0492 12.7727C17.4144 12.4452 17.6761 11.9939 17.7773 11.4789L18.9616 5.0201C19.0378 4.60268 18.7753 4.20064 18.3739 4.12069C18.3259 4.1107 18.2778 4.10609 18.2357 4.10686H6.27534M9.36466 16.4064C9.36466 15.9821 9.19833 15.5969 8.93146 15.3194C8.66459 15.0419 8.29423 14.869 7.88616 14.869C7.4781 14.869 7.10773 15.0419 6.84086 15.3194C6.57399 15.5969 6.40766 15.9821 6.40766 16.4064C6.40766 16.8307 6.57399 17.2159 6.84086 17.4934C7.10773 17.7709 7.4781 17.9439 7.88616 17.9439C8.29423 17.9439 8.66459 17.7709 8.93146 17.4934C9.19833 17.2159 9.36466 16.8307 9.36466 16.4064ZM17.4964 16.4064C17.4964 15.9821 17.3301 15.5969 17.0632 15.3194C16.7963 15.0419 16.426 14.869 16.0179 14.869C15.6098 14.869 15.2395 15.0419 14.9726 15.3194C14.7057 15.5969 14.5394 15.9821 14.5394 16.4064C14.5394 16.8307 14.7057 17.2159 14.9726 17.4934C15.2395 17.7709 15.6098 17.9439 16.0179 17.9439C16.426 17.9439 16.7963 17.7709 17.0632 17.4934C17.3301 17.2159 17.4964 16.8307 17.4964 16.4064Z" stroke="#36B843" stroke-width="0.5"/>
<rect x="6.24268" y="14.899" width="2.93801" height="2.93786" rx="1.46893" fill="#36B843"/>
<path d="M1.34619 0.932192C1.34619 0.537089 1.67339 0.220501 2.06827 0.233517L3.95591 0.295734C4.4469 0.311917 4.78375 0.796429 4.62792 1.26232C4.52174 1.57977 4.21425 1.78519 3.88033 1.76176L1.99631 1.62953C1.63012 1.60383 1.34619 1.29928 1.34619 0.932192Z" fill="#36B843"/>
<path d="M4.10531 1.31364C4.01443 1.01558 4.11579 0.692295 4.36058 0.499469C4.70382 0.229083 5.20415 0.305207 5.45144 0.665441L5.47596 0.701153C5.52959 0.779279 5.56885 0.86635 5.59189 0.95827L6.30611 3.80789C6.37422 4.07963 6.27109 4.36557 6.04521 4.53127C5.66227 4.8122 5.11662 4.63078 4.97812 4.1765L4.10531 1.31364Z" fill="#36B843"/>
<path d="M4.94517 4.97778C4.85991 4.53648 5.19799 4.12683 5.64745 4.12683C5.99245 4.12683 6.28829 4.3731 6.35086 4.71239L7.68725 11.9595C7.78161 12.4712 7.29273 12.8967 6.79896 12.7326C6.5643 12.6546 6.39 12.4561 6.34309 12.2133L4.94517 4.97778Z" fill="#36B843"/>
<path d="M7.57789 13.267C7.19303 13.1691 6.93472 12.8081 6.96631 12.4123C7.00011 11.9887 7.35373 11.6622 7.77867 11.6622H15.5793L16.0923 11.6114C16.72 11.5493 17.1795 12.1902 16.9191 12.7648C16.823 12.9766 16.6415 13.1376 16.4198 13.2077L15.8218 13.3966C15.605 13.4651 15.3789 13.5 15.1515 13.5H11.4946H8.7056C8.5655 13.5 8.42594 13.4825 8.29016 13.448L7.57789 13.267Z" fill="#36B843"/>
<path d="M17.5851 12.1477C17.537 12.4254 17.3266 12.6471 17.0517 12.7096C16.5674 12.8197 16.1261 12.4035 16.2078 11.9136L17.4051 4.72994C17.4631 4.38191 17.7642 4.12683 18.1171 4.12683C18.5649 4.12683 18.9047 4.5305 18.8282 4.97181L17.5851 12.1477Z" fill="#36B843"/>
<path d="M7.08027 5.59966C6.86063 5.59719 6.65355 5.49681 6.51556 5.32591C6.12666 4.84427 6.46948 4.12683 7.08853 4.12683H17.9592C18.2881 4.12683 18.5955 4.29062 18.779 4.56369L18.9759 4.85678C19.1252 5.079 19.0961 5.37585 18.9065 5.56483C18.8001 5.67083 18.6556 5.7296 18.5054 5.72792L7.08027 5.59966Z" fill="#36B843"/>
<path d="M14.3237 16.5311C14.3237 15.7198 14.9814 15.0621 15.7927 15.0621H16.0186C16.9269 15.0621 17.6175 15.8782 17.4673 16.7739C17.3486 17.4816 16.7361 18 16.0186 18H15.7927C14.9814 18 14.3237 17.3423 14.3237 16.5311Z" fill="#36B843"/>
</svg>
