<svg width="19" height="19" viewBox="0 0 19 19" fill="none" xmlns="http://www.w3.org/2000/svg">
<path d="M16.7383 5.953C17.0077 5.96785 17.1792 5.98353 17.2239 5.99949C17.2289 6.00126 17.2323 6.00305 17.2341 6.00483L17.3354 5.52264C17.5062 5.55854 17.6071 5.6645 17.6602 5.74363M16.7383 5.953L7.66922 12.114M16.7383 5.953C16.7411 5.92935 16.7456 5.90502 16.7522 5.88009C16.797 5.71156 16.9119 5.62601 16.9466 5.60179L16.4622 5.93952L16.7383 5.953ZM17.6602 5.74363C17.7173 5.83668 17.762 5.97415 17.7187 6.13703C17.6732 6.30782 17.5565 6.39563 17.5185 6.42211L17.2524 6.04042C17.3136 6.27301 16.9792 7.87934 16.6278 9.56676C16.4803 10.2753 16.3297 10.9982 16.2043 11.6397M17.6602 5.74363C17.6433 5.71608 17.6253 5.69242 17.6082 5.67315C17.5444 5.60127 17.4759 5.56581 17.4505 5.55332C17.4178 5.53718 17.3892 5.5273 17.3717 5.52176C17.3116 5.50274 17.2487 5.49389 17.2143 5.48934C17.1289 5.47806 17.0097 5.4685 16.8712 5.45991C16.5892 5.44242 16.1798 5.42622 15.6878 5.41189C14.7018 5.38319 13.3657 5.36154 12.011 5.35316C10.6566 5.34477 9.27926 5.34961 8.21155 5.37415C7.67858 5.38639 7.21717 5.40366 6.8725 5.42715C6.81389 5.43115 6.75772 5.43538 6.70442 5.43989M17.6602 5.74363C17.6733 5.76316 17.6836 5.78106 17.6912 5.79586C17.7304 5.87191 17.7439 5.94257 17.7496 5.9788C17.7618 6.05628 17.7606 6.13514 17.758 6.19369C17.7523 6.31954 17.7323 6.48208 17.7052 6.66135C17.6501 7.02541 17.5557 7.52411 17.4436 8.08315C17.3437 8.58193 17.2304 9.12592 17.1157 9.6763C16.9693 10.3793 16.8207 11.0927 16.695 11.7357M16.2043 11.6397C16.1698 11.8181 16.0798 11.9723 15.9553 12.0842M16.2043 11.6397L16.6952 11.7346C16.6951 11.735 16.6951 11.7353 16.695 11.7357M16.2043 11.6397L16.695 11.7357M15.9553 12.0842C15.8203 12.2063 15.6455 12.2767 15.4393 12.2728M15.9553 12.0842L16.2907 12.4551C16.2905 12.4552 16.2903 12.4554 16.2901 12.4556M15.9553 12.0842L16.2896 12.4561C16.2897 12.4559 16.2899 12.4557 16.2901 12.4556M15.4393 12.2728H8.13873M15.4393 12.2728V12.7728H15.4351M15.4393 12.2728L15.4298 12.7727C15.4316 12.7728 15.4333 12.7728 15.4351 12.7728M8.13873 12.2728C7.96473 12.2752 7.80047 12.2173 7.66922 12.114M8.13873 12.2728L8.14547 12.7728C8.1442 12.7728 8.14292 12.7728 8.14165 12.7728M8.13873 12.2728V12.7728H8.14165M7.66922 12.114C7.52672 12.002 7.42247 11.8393 7.38497 11.642M7.66922 12.114L7.35998 12.5069C7.5786 12.6789 7.85252 12.7758 8.14165 12.7728M7.38497 11.642C7.25094 11.0097 7.09708 10.3234 6.94712 9.65443C6.66105 8.37835 6.38918 7.16561 6.29626 6.51195H5.7916M7.38497 11.642L6.89377 11.7354C6.89414 11.7374 6.89451 11.7393 6.89488 11.7412M7.38497 11.642L6.89584 11.7457C6.89552 11.7442 6.8952 11.7427 6.89488 11.7412M5.7916 6.51195C5.77438 6.38049 5.76295 6.25815 5.76254 6.15662C5.7624 6.11966 5.76336 6.06851 5.77102 6.01195C5.77395 5.99032 5.77786 5.9679 5.78306 5.94518L5.70003 5.51195M5.7916 6.51195H5.3892C5.38601 6.51195 5.38282 6.51194 5.37963 6.51192M5.7916 6.51195C5.79644 6.54885 5.80173 6.58648 5.80736 6.62456C5.85999 6.98032 5.95724 7.47071 6.07507 8.02381C6.188 8.55394 6.32222 9.15268 6.45895 9.76258L6.47875 9.85092C6.62222 10.491 6.76759 11.1408 6.89488 11.7412M5.70003 5.51195H6.20913H6.21529C6.23274 5.50697 6.24726 5.50342 6.25764 5.50092C6.31248 5.48771 6.37236 5.47755 6.43144 5.46927C6.50987 5.45828 6.60185 5.44857 6.70442 5.43989M5.70003 5.51195L5.59169 4.94674H5.3892C5.27118 4.94674 5.13919 5.05322 5.13919 5.22934C5.13919 5.2469 5.14048 5.2622 5.14242 5.27487L5.14342 5.28138L5.14869 5.3089M5.70003 5.51195H5.3892C5.2897 5.51195 5.18324 5.43987 5.14876 5.30923L5.15123 5.32212L5.15125 5.32224L5.14869 5.3089M6.70442 5.43989L6.60989 4.94674H18.1393V4.94682L18.1485 4.94665C18.1483 4.94665 18.1491 4.94664 18.1509 4.94671L18.1578 4.94722C18.1636 4.9478 18.1704 4.94881 18.1774 4.95028L18.1774 4.95029L18.1816 4.95113C18.3034 4.97547 18.4157 5.11204 18.3839 5.28705L17.1831 11.8588C17.1006 12.2764 16.8897 12.6377 16.6011 12.8974L16.601 12.8975C16.2832 13.1837 15.8741 13.347 15.4498 13.3381L15.4498 13.338H15.4393H8.15973V13.338L8.1521 13.3381C7.75768 13.3441 7.38181 13.2114 7.07798 12.9729L7.07759 12.9725C6.74399 12.7112 6.49423 12.3226 6.40541 11.8554L6.40524 11.8546L5.37963 6.51192M6.70442 5.43989L5.37963 6.51192M16.695 11.7357C16.6397 12.0206 16.4948 12.2713 16.2901 12.4556M16.2901 12.4556C16.0624 12.6613 15.7666 12.7778 15.4351 12.7728M15.4351 12.7728H8.14165M5.14869 5.3089L5.14875 5.30919L5.14869 5.3089ZM5.37963 6.51192L6.89488 11.7412M5.39978 3.94674L5.49582 4.44674L5.5139 4.54086L5.51393 4.54105L5.51402 4.54151L1.63917 2.09891C1.22516 2.09891 0.88916 1.7483 0.88916 1.3163C0.88916 0.8843 1.22516 0.533691 1.63917 0.533691H4.63919C5.00145 0.533691 5.3037 0.801344 5.3742 1.16291L5.90892 3.94674H5.39978ZM5.39978 3.94674L4.88344 1.2586C4.88341 1.25842 4.88337 1.25824 4.88334 1.25807C4.85446 1.11118 4.7418 1.03369 4.63919 1.03369H1.63917C1.52114 1.03369 1.38916 1.14018 1.38916 1.3163C1.38916 1.49242 1.52114 1.59891 1.63917 1.59891H4.02419H4.43744L4.51525 2.00477L4.90642 4.04516C5.05373 3.98195 5.21643 3.94674 5.3892 3.94674H5.39978ZM5.59186 4.94674H6.00496H6.10079H5.59186ZM8.33874 16.2078C8.52203 16.3991 8.63924 16.6679 8.63924 16.9685C8.63924 17.2691 8.52203 17.5379 8.33874 17.7291C8.15579 17.92 7.90781 18.0337 7.63922 18.0337C7.37063 18.0337 7.12265 17.92 6.93971 17.7291C6.75642 17.5379 6.63921 17.2691 6.63921 16.9685C6.63921 16.6679 6.75642 16.3991 6.93971 16.2078C7.12265 16.0169 7.37063 15.9033 7.63922 15.9033C7.90781 15.9033 8.15579 16.0169 8.33874 16.2078ZM16.5888 16.2078C16.7721 16.3991 16.8893 16.6679 16.8893 16.9685C16.8893 17.2691 16.7721 17.5379 16.5888 17.7291C16.4059 17.92 16.1579 18.0337 15.8893 18.0337C15.6207 18.0337 15.3727 17.92 15.1898 17.7291C15.0065 17.5379 14.8893 17.2691 14.8893 16.9685C14.8893 16.6679 15.0065 16.3991 15.1898 16.2078C15.3727 16.0169 15.6207 15.9033 15.8893 15.9033C16.1579 15.9033 16.4059 16.0169 16.5888 16.2078Z" stroke="#36B843"/>
<rect x="7.03467" y="16.3467" width="1.44727" height="1.57407" fill="#36B843"/>
<rect x="15.311" y="16.3467" width="1.44727" height="1.57407" fill="#36B843"/>
</svg>
