<svg width="19" height="19" viewBox="0 0 19 19" fill="none" xmlns="http://www.w3.org/2000/svg">
<path d="M8.69411 0.95076C8.99411 0.0297598 10.2971 0.0297598 10.5961 0.95076L12.1151 5.62476C12.1805 5.82525 12.3076 5.99994 12.4782 6.12386C12.6488 6.24779 12.8542 6.3146 13.0651 6.31476H17.9801C18.9491 6.31476 19.3511 7.55476 18.5681 8.12476L14.5921 11.0128C14.4213 11.1369 14.2942 11.312 14.229 11.5128C14.1638 11.7136 14.1638 11.9299 14.2291 12.1308L15.7471 16.8048C16.0471 17.7268 14.9921 18.4928 14.2091 17.9228L10.2331 15.0348C10.0622 14.9105 9.85639 14.8436 9.64511 14.8436C9.43384 14.8436 9.228 14.9105 9.05711 15.0348L5.08111 17.9228C4.29811 18.4928 3.24311 17.7258 3.54311 16.8048L5.06111 12.1308C5.12639 11.9299 5.12643 11.7136 5.06122 11.5128C4.99602 11.312 4.86891 11.1369 4.69811 11.0128L0.722115 8.12476C-0.0618851 7.55476 0.342115 6.31476 1.31011 6.31476H6.22412C6.43516 6.31482 6.64082 6.2481 6.81164 6.12416C6.98246 6.00022 7.10969 5.82541 7.17511 5.62476L8.69411 0.95076Z" fill="#FCDE44"/>
</svg>
