<svg width="13" height="13" viewBox="0 0 13 13" fill="none" xmlns="http://www.w3.org/2000/svg">
<path d="M5.93825 1.29419C6.13104 0.675332 6.96836 0.675332 7.1605 1.29419L8.13662 4.43486C8.17863 4.56958 8.26029 4.68696 8.36994 4.77023C8.47958 4.8535 8.61159 4.8984 8.7471 4.89851H11.9055C12.5282 4.89851 12.7866 5.73172 12.2834 6.11473L9.72837 8.0553C9.61862 8.13873 9.53694 8.25635 9.49503 8.3913C9.45313 8.52625 9.45315 8.6716 9.4951 8.80654L10.4706 11.9472C10.6634 12.5667 9.98541 13.0814 9.48225 12.6984L6.92723 10.7579C6.81742 10.6744 6.68514 10.6294 6.54938 10.6294C6.41361 10.6294 6.28134 10.6744 6.17152 10.7579L3.6165 12.6984C3.11334 13.0814 2.43538 12.5661 2.62817 11.9472L3.60365 8.80654C3.6456 8.6716 3.64562 8.52625 3.60372 8.3913C3.56182 8.25635 3.48014 8.13873 3.37038 8.0553L0.815363 6.11473C0.311557 5.73172 0.571171 4.89851 1.19322 4.89851H4.35101C4.48663 4.89854 4.61878 4.85371 4.72856 4.77043C4.83833 4.68715 4.92009 4.56969 4.96213 4.43486L5.93825 1.29419Z" fill="#FCDE44"/>
</svg>
