<svg width="15" height="19" viewBox="0 0 15 19" fill="none" xmlns="http://www.w3.org/2000/svg">
<path d="M14.0491 16.1965C14.0491 17.9965 10.4199 18.8147 7.04907 18.8147C3.67825 18.8147 0.0490723 17.9965 0.0490723 16.1965C0.0490723 14.8056 2.06762 14.1511 3.7578 13.8546C4.10589 13.793 4.43362 14.0287 4.49344 14.386C4.55325 14.7434 4.32416 15.0812 3.97671 15.1427C1.92825 15.5106 1.35171 16.0833 1.3218 16.2063C1.42107 16.5539 3.33016 17.505 7.04907 17.505C10.768 17.505 12.6771 16.5539 12.7763 16.1854C12.7464 16.0833 12.1699 15.5106 10.1214 15.142C9.77335 15.0805 9.54489 14.7434 9.60471 14.3854C9.66453 14.0274 9.99225 13.7924 10.3403 13.8539C12.0305 14.1504 14.0491 14.8056 14.0491 16.1965ZM10.2309 7.03288V10.9602C10.2309 11.3182 9.94262 11.6147 9.59453 11.6147H8.95816V15.542C8.95816 15.9 8.66989 16.1965 8.3218 16.1965H5.77634C5.42825 16.1965 5.13998 15.9 5.13998 15.542V11.6147H4.50362C4.15553 11.6147 3.86725 11.3182 3.86725 10.9602V7.03288C3.86725 6.30699 4.43425 5.72379 5.13998 5.72379H8.95816C9.66389 5.72379 10.2309 6.30699 10.2309 7.03288ZM9.27635 3.10561C9.27635 4.37346 8.28171 5.39652 7.04907 5.39652C5.81644 5.39652 4.8218 4.37346 4.8218 3.10561C4.8218 1.83775 5.81644 0.814697 7.04907 0.814697C8.28171 0.814697 9.27635 1.83775 9.27635 3.10561Z" fill="#F45656"/>
</svg>
