<svg width="14" height="14" viewBox="0 0 22 22" fill="none" xmlns="http://www.w3.org/2000/svg">
<path d="M11 17.3156C14.507 17.3156 17.349 14.4735 17.349 10.9665C17.349 7.45954 14.507 4.61748 11 4.61748C7.49302 4.61748 4.65096 7.45954 4.65096 10.9665C4.65096 14.4735 7.49302 17.3156 11 17.3156ZM11 0C10.6814 0 10.4228 0.249344 10.4228 0.571413V2.89054C10.4228 3.20684 10.6906 3.46196 11 3.46196C11.3186 3.46196 11.5772 3.21261 11.5772 2.89054V0.571413C11.5772 0.255116 11.3094 0 11 0ZM18.7782 3.22185C18.553 2.99675 18.194 2.98982 17.9655 3.21839L16.3251 4.85875C16.1023 5.08154 16.1104 5.45209 16.3286 5.67142C16.5537 5.89653 16.9127 5.90345 17.1413 5.67489L18.7816 4.03453C19.0044 3.81173 18.9963 3.44118 18.7782 3.22185ZM22 11C22 10.6814 21.7507 10.4228 21.4286 10.4228H19.1095C18.7932 10.4228 18.538 10.6906 18.538 11C18.538 11.3186 18.7874 11.5772 19.1095 11.5772H21.4286C21.7449 11.5772 22 11.3094 22 11ZM18.7782 18.7782C19.0033 18.5531 19.0102 18.194 18.7816 17.9655L17.1413 16.3251C16.9185 16.1023 16.5479 16.1104 16.3286 16.3286C16.1035 16.5537 16.0965 16.9127 16.3251 17.1413L17.9655 18.7816C18.1883 19.0044 18.5588 18.9963 18.7782 18.7782ZM11 22C11.3186 22 11.5772 21.7507 11.5772 21.4286V19.1095C11.5772 18.7932 11.3094 18.538 11 18.538C10.6814 18.538 10.4228 18.7874 10.4228 19.1095V21.4286C10.4228 21.7449 10.6906 22 11 22ZM3.22185 18.7782C3.44695 19.0033 3.80596 19.0102 4.03453 18.7816L5.67489 17.1413C5.89768 16.9185 5.8896 16.5479 5.67142 16.3286C5.44632 16.1035 5.08731 16.0965 4.85875 16.3251L3.21839 17.9655C2.99559 18.1883 3.00367 18.5588 3.22185 18.7782ZM0 11C0 11.3186 0.249344 11.5772 0.571413 11.5772H2.89054C3.20684 11.5772 3.46196 11.3094 3.46196 11C3.46196 10.6814 3.21261 10.4228 2.89054 10.4228H0.571413C0.255116 10.4228 0 10.6906 0 11ZM3.22185 3.22185C2.99675 3.44695 2.98982 3.80596 3.21839 4.03453L4.85875 5.67489C5.08154 5.89768 5.45209 5.8896 5.67142 5.67142C5.89653 5.44632 5.90345 5.08731 5.67489 4.85875L4.85471 4.03857L4.03453 3.21839C3.81173 2.99559 3.44118 3.00367 3.22185 3.22185Z" fill="white"/>
</svg>
