<svg width="19" height="21" viewBox="0 0 19 21" fill="none" xmlns="http://www.w3.org/2000/svg">
<path d="M18.0867 19.814V17.814C18.0867 16.434 17.5257 15.182 16.6227 14.278C15.7197 13.374 14.4667 12.814 13.0867 12.814H5.08667C3.70667 12.814 2.45467 13.375 1.55067 14.278C0.64667 15.181 0.0866699 16.434 0.0866699 17.814V19.814C0.0866699 20.366 0.53467 20.814 1.08667 20.814C1.63867 20.814 2.08667 20.366 2.08667 19.814V17.814C2.08667 16.985 2.42167 16.237 2.96567 15.693C3.50967 15.149 4.25767 14.814 5.08667 14.814H13.0867C13.9157 14.814 14.6637 15.149 15.2077 15.693C15.7517 16.237 16.0867 16.985 16.0867 17.814V19.814C16.0867 20.366 16.5347 20.814 17.0867 20.814C17.6387 20.814 18.0867 20.366 18.0867 19.814ZM14.0867 5.81396C14.0867 4.43396 13.5257 3.18196 12.6227 2.27796C11.7197 1.37396 10.4667 0.813965 9.08667 0.813965C7.70667 0.813965 6.45467 1.37496 5.55067 2.27796C4.64667 3.18096 4.08667 4.43396 4.08667 5.81396C4.08667 7.19396 4.64767 8.44597 5.55067 9.34997C6.45367 10.254 7.70667 10.814 9.08667 10.814C10.4667 10.814 11.7187 10.253 12.6227 9.34997C13.5267 8.44697 14.0867 7.19396 14.0867 5.81396ZM12.0867 5.81396C12.0867 6.64296 11.7517 7.39096 11.2077 7.93497C10.6637 8.47897 9.91567 8.81396 9.08667 8.81396C8.25767 8.81396 7.50967 8.47897 6.96567 7.93497C6.42167 7.39096 6.08667 6.64296 6.08667 5.81396C6.08667 4.98496 6.42167 4.23697 6.96567 3.69297C7.50967 3.14896 8.25767 2.81396 9.08667 2.81396C9.91567 2.81396 10.6637 3.14896 11.2077 3.69297C11.7517 4.23697 12.0867 4.98496 12.0867 5.81396Z" fill="#F45656"/>
</svg>
